# xmcd CD database file
#
# Track frame offsets:
#	150
#	12779
#	27239
#	41929
#	55717
#	67369
#	77733
#	102209
#
# Disc length: 1749 seconds
#
# Revision: 3
# Processed by: cddbd v1.5.2PL0 Copyright (c) Steve Scherf et al.
# Submitted via: CDex 1.51
#
DISCID=6506d308
DTITLE=Beatsteaks - Demons Galore EP
DYEAR=2007
DGENRE=Rock
TTITLE0=Demons Galore (EP-Version)
TTITLE1=She's Lost Control
TTITLE2=Wer A sagt muss auch B zahlen
TTITLE3=Sabotage (live)
TTITLE4=Kaputtt
TTITLE5=Pretty Fucked Up
TTITLE6=Marmelade und Himbeereis
TTITLE7=Demons Galore (Video)
EXTD=YEAR: 2007
EXTT0=
EXTT1=
EXTT2=
EXTT3=
EXTT4=
EXTT5=
EXTT6=
EXTT7=
PLAYORDER=
